<?xml version="1.0" encoding="UTF-8" standalone="no"?>
<!DOCTYPE svg PUBLIC "-//W3C//DTD SVG 1.1//EN"
 "http://www.w3.org/Graphics/SVG/1.1/DTD/svg11.dtd">
<!-- Generated by graphviz version 2.43.0 (0)
 -->
<!-- Title: snakemake_dag Pages: 1 -->
<svg width="240pt" height="476pt"
 viewBox="0.00 0.00 240.00 476.00" xmlns="http://www.w3.org/2000/svg" xmlns:xlink="http://www.w3.org/1999/xlink">
<g id="graph0" class="graph" transform="scale(1 1) rotate(0) translate(4 472)">
<title>snakemake_dag</title>
<polygon fill="white" stroke="transparent" points="-4,4 -4,-472 236,-472 236,4 -4,4"/>
<!-- 0 -->
<g id="node1" class="node">
<title>0</title>
<path fill="none" stroke="#56d89a" stroke-width="2" stroke-dasharray="5,2" d="M112.5,-36C112.5,-36 82.5,-36 82.5,-36 76.5,-36 70.5,-30 70.5,-24 70.5,-24 70.5,-12 70.5,-12 70.5,-6 76.5,0 82.5,0 82.5,0 112.5,0 112.5,0 118.5,0 124.5,-6 124.5,-12 124.5,-12 124.5,-24 124.5,-24 124.5,-30 118.5,-36 112.5,-36"/>
<text text-anchor="middle" x="97.5" y="-15.5" font-family="sans" font-size="10.00">all</text>
</g>
<!-- 1 -->
<g id="node2" class="node">
<title>1</title>
<path fill="none" stroke="#59d856" stroke-width="2" stroke-dasharray="5,2" d="M220,-180C220,-180 125,-180 125,-180 119,-180 113,-174 113,-168 113,-168 113,-156 113,-156 113,-150 119,-144 125,-144 125,-144 220,-144 220,-144 226,-144 232,-150 232,-156 232,-156 232,-168 232,-168 232,-174 226,-180 220,-180"/>
<text text-anchor="middle" x="172.5" y="-159.5" font-family="sans" font-size="10.00">calculate_gc_content</text>
</g>
<!-- 1&#45;&gt;0 -->
<g id="edge1" class="edge">
<title>1&#45;&gt;0</title>
<path fill="none" stroke="grey" stroke-width="2" d="M148.54,-143.88C137.16,-134.53 124.36,-122.01 116.5,-108 105.83,-89 101.14,-64.64 99.09,-46.21"/>
<polygon fill="grey" stroke="grey" stroke-width="2" points="102.56,-45.76 98.16,-36.13 95.59,-46.41 102.56,-45.76"/>
</g>
<!-- 3 -->
<g id="node4" class="node">
<title>3</title>
<path fill="none" stroke="#569ad8" stroke-width="2" stroke-dasharray="5,2" d="M207.5,-108C207.5,-108 137.5,-108 137.5,-108 131.5,-108 125.5,-102 125.5,-96 125.5,-96 125.5,-84 125.5,-84 125.5,-78 131.5,-72 137.5,-72 137.5,-72 207.5,-72 207.5,-72 213.5,-72 219.5,-78 219.5,-84 219.5,-84 219.5,-96 219.5,-96 219.5,-102 213.5,-108 207.5,-108"/>
<text text-anchor="middle" x="172.5" y="-87.5" font-family="sans" font-size="10.00">plot_gc_content</text>
</g>
<!-- 1&#45;&gt;3 -->
<g id="edge6" class="edge">
<title>1&#45;&gt;3</title>
<path fill="none" stroke="grey" stroke-width="2" d="M172.5,-143.7C172.5,-135.98 172.5,-126.71 172.5,-118.11"/>
<polygon fill="grey" stroke="grey" stroke-width="2" points="176,-118.1 172.5,-108.1 169,-118.1 176,-118.1"/>
</g>
<!-- 2 -->
<g id="node3" class="node">
<title>2</title>
<path fill="none" stroke="#d89556" stroke-width="2" stroke-dasharray="5,2" d="M83,-180C83,-180 12,-180 12,-180 6,-180 0,-174 0,-168 0,-168 0,-156 0,-156 0,-150 6,-144 12,-144 12,-144 83,-144 83,-144 89,-144 95,-150 95,-156 95,-156 95,-168 95,-168 95,-174 89,-180 83,-180"/>
<text text-anchor="middle" x="47.5" y="-159.5" font-family="sans" font-size="10.00">cluster_pubmed</text>
</g>
<!-- 2&#45;&gt;0 -->
<g id="edge2" class="edge">
<title>2&#45;&gt;0</title>
<path fill="none" stroke="grey" stroke-width="2" d="M53.53,-143.87C62.13,-119.46 77.98,-74.43 88.12,-45.64"/>
<polygon fill="grey" stroke="grey" stroke-width="2" points="91.43,-46.78 91.45,-36.19 84.82,-44.46 91.43,-46.78"/>
</g>
<!-- 3&#45;&gt;0 -->
<g id="edge3" class="edge">
<title>3&#45;&gt;0</title>
<path fill="none" stroke="grey" stroke-width="2" d="M153.96,-71.7C144.7,-63.05 133.34,-52.45 123.24,-43.03"/>
<polygon fill="grey" stroke="grey" stroke-width="2" points="125.52,-40.37 115.83,-36.1 120.75,-45.49 125.52,-40.37"/>
</g>
<!-- 4 -->
<g id="node5" class="node">
<title>4</title>
<path fill="none" stroke="#56d8d8" stroke-width="2" stroke-dasharray="5,2" d="M197.5,-252C197.5,-252 123.5,-252 123.5,-252 117.5,-252 111.5,-246 111.5,-240 111.5,-240 111.5,-228 111.5,-228 111.5,-222 117.5,-216 123.5,-216 123.5,-216 197.5,-216 197.5,-216 203.5,-216 209.5,-222 209.5,-228 209.5,-228 209.5,-240 209.5,-240 209.5,-246 203.5,-252 197.5,-252"/>
<text text-anchor="middle" x="160.5" y="-231.5" font-family="sans" font-size="10.00">sort_by_pubmed</text>
</g>
<!-- 4&#45;&gt;1 -->
<g id="edge4" class="edge">
<title>4&#45;&gt;1</title>
<path fill="none" stroke="grey" stroke-width="2" d="M163.47,-215.7C164.79,-207.98 166.38,-198.71 167.85,-190.11"/>
<polygon fill="grey" stroke="grey" stroke-width="2" points="171.33,-190.55 169.57,-180.1 164.43,-189.37 171.33,-190.55"/>
</g>
<!-- 5 -->
<g id="node6" class="node">
<title>5</title>
<path fill="none" stroke="#d85656" stroke-width="2" stroke-dasharray="5,2" d="M124.5,-324C124.5,-324 94.5,-324 94.5,-324 88.5,-324 82.5,-318 82.5,-312 82.5,-312 82.5,-300 82.5,-300 82.5,-294 88.5,-288 94.5,-288 94.5,-288 124.5,-288 124.5,-288 130.5,-288 136.5,-294 136.5,-300 136.5,-300 136.5,-312 136.5,-312 136.5,-318 130.5,-324 124.5,-324"/>
<text text-anchor="middle" x="109.5" y="-303.5" font-family="sans" font-size="10.00">uniprot</text>
</g>
<!-- 5&#45;&gt;2 -->
<g id="edge5" class="edge">
<title>5&#45;&gt;2</title>
<path fill="none" stroke="grey" stroke-width="2" d="M102.02,-287.87C91.36,-263.46 71.7,-218.43 59.13,-189.64"/>
<polygon fill="grey" stroke="grey" stroke-width="2" points="62.21,-187.95 55.01,-180.19 55.8,-190.75 62.21,-187.95"/>
</g>
<!-- 5&#45;&gt;4 -->
<g id="edge7" class="edge">
<title>5&#45;&gt;4</title>
<path fill="none" stroke="grey" stroke-width="2" d="M122.11,-287.7C128.1,-279.47 135.38,-269.48 141.98,-260.42"/>
<polygon fill="grey" stroke="grey" stroke-width="2" points="144.98,-262.25 148.04,-252.1 139.32,-258.13 144.98,-262.25"/>
</g>
<!-- 6 -->
<g id="node7" class="node">
<title>6</title>
<path fill="none" stroke="#d6d856" stroke-width="2" stroke-dasharray="5,2" d="M124.5,-396C124.5,-396 94.5,-396 94.5,-396 88.5,-396 82.5,-390 82.5,-384 82.5,-384 82.5,-372 82.5,-372 82.5,-366 88.5,-360 94.5,-360 94.5,-360 124.5,-360 124.5,-360 130.5,-360 136.5,-366 136.5,-372 136.5,-372 136.5,-384 136.5,-384 136.5,-390 130.5,-396 124.5,-396"/>
<text text-anchor="middle" x="109.5" y="-375.5" font-family="sans" font-size="10.00">kegg</text>
</g>
<!-- 6&#45;&gt;5 -->
<g id="edge8" class="edge">
<title>6&#45;&gt;5</title>
<path fill="none" stroke="grey" stroke-width="2" d="M109.5,-359.7C109.5,-351.98 109.5,-342.71 109.5,-334.11"/>
<polygon fill="grey" stroke="grey" stroke-width="2" points="113,-334.1 109.5,-324.1 106,-334.1 113,-334.1"/>
</g>
<!-- 7 -->
<g id="node8" class="node">
<title>7</title>
<path fill="none" stroke="#97d856" stroke-width="2" stroke-dasharray="5,2" d="M132.5,-468C132.5,-468 86.5,-468 86.5,-468 80.5,-468 74.5,-462 74.5,-456 74.5,-456 74.5,-444 74.5,-444 74.5,-438 80.5,-432 86.5,-432 86.5,-432 132.5,-432 132.5,-432 138.5,-432 144.5,-438 144.5,-444 144.5,-444 144.5,-456 144.5,-456 144.5,-462 138.5,-468 132.5,-468"/>
<text text-anchor="middle" x="109.5" y="-447.5" font-family="sans" font-size="10.00">get_alt_ids</text>
</g>
<!-- 7&#45;&gt;6 -->
<g id="edge9" class="edge">
<title>7&#45;&gt;6</title>
<path fill="none" stroke="grey" stroke-width="2" d="M109.5,-431.7C109.5,-423.98 109.5,-414.71 109.5,-406.11"/>
<polygon fill="grey" stroke="grey" stroke-width="2" points="113,-406.1 109.5,-396.1 106,-406.1 113,-406.1"/>
</g>
</g>
</svg>
